<mxfile host="app.diagrams.net" modified="2024-03-13T10:09:01.778Z" agent="Mozilla/5.0 (X11; Linux x86_64; rv:123.0) Gecko/20100101 Firefox/123.0" version="24.0.4" etag="0XHjv1luC6AvdMsVVnGq" type="github">
  <diagram name="Page-1" id="S4zupXR5GAYlu0-Of-ut">
    <mxGraphModel>
      <root>
        <mxCell id="0" />
        <mxCell id="1" parent="0" />
      </root>
    </mxGraphModel>
  </diagram>
</mxfile>
